<?xml version="1.0" encoding="utf-8"?>
<!-- Generator: Adobe Illustrator 16.0.0, SVG Export Plug-In . SVG Version: 6.00 Build 0)  -->
<!DOCTYPE svg PUBLIC "-//W3C//DTD SVG 1.1//EN" "http://www.w3.org/Graphics/SVG/1.1/DTD/svg11.dtd">
<svg version="1.1" id="Layer_1" xmlns="http://www.w3.org/2000/svg" xmlns:xlink="http://www.w3.org/1999/xlink" x="0px" y="0px"
	 width="99.25px" height="36.083px" viewBox="0 0 99.25 36.083" enable-background="new 0 0 99.25 36.083" xml:space="preserve">
<path fill="#F2F2F3" d="M70.223,18.318l-0.879-0.337l0.879-0.339c0,0,4.276-1.666,4.219-8.25c-0.057-6.582-6.158-9.215-7.869-9.214
	c-1.247,0.001-18.574,0-25.15,0c3.617,2.128,6.523,5.326,8.287,9.162h11.787c0,0,1.939-0.258,2.226,1.796
	c0.284,2.053-2.226,2.11-2.226,2.11H51.047c0.35,1.504,0.539,3.068,0.539,4.678c0,0.02,0,0.038,0,0.057c0,0.017,0,0.033,0,0.055
	c0,1.607-0.189,3.174-0.539,4.677h10.449c0,0,2.51,0.059,2.226,2.111c-0.286,2.052-2.226,1.795-2.226,1.795H49.709
	c-1.764,3.835-4.67,7.034-8.287,9.162c6.576,0,23.903,0,25.15,0c1.711,0,7.813-2.632,7.869-9.213
	C74.499,19.984,70.223,18.318,70.223,18.318z"/>
<path fill="#F2F2F3" d="M97.729,20.098c-0.941-3.594-2.141-5.389-7.016-10.866c-4.146-4.661-3.849-7.571-3.849-7.571V0.414H76.172
	c0,0-0.941,0.606-0.428,4.712c0.514,4.106,6.929,10.351,9.408,13.224c2.482,2.874,2.139,4.57,2.139,4.57
	c0.088,4.106-3.591,3.85-3.591,3.85h-6.825c0.005,0.208,0.001,0.289,0,0.506c-0.034,3.937-2.588,6.787-4.688,8.505h16.217
	C98.754,32.73,98.67,23.69,97.729,20.098z"/>
<circle fill="#F2F2F3" cx="31.071" cy="17.951" r="4.679"/>
<path fill="#F2F2F3" d="M40.213,20.466c-1.108,4.015-4.775,6.965-9.143,6.965c-5.242,0-9.493-4.249-9.493-9.491
	c0-5.243,4.251-9.493,9.493-9.493c4.367,0,8.034,2.952,9.143,6.966h8.569C47.555,6.728,40.094,0.046,31.07,0.046
	c-9.881,0-17.894,8.012-17.894,17.894c0,9.883,8.013,17.894,17.894,17.894c9.023,0,16.484-6.683,17.712-15.367H40.213z"/>
<path fill="#DF6D27" d="M0,0.414l15.232,25.913l1.926,2.866c0,0-0.934-20.74,14.204-20.788V0.046c0,0-8.653-1.138-16.196,7.917
	l-4.529-7.549H0z"/>
</svg>
